<mxfile host="Electron" modified="2023-11-30T08:42:47.145Z" agent="Mozilla/5.0 (Windows NT 10.0; Win64; x64) AppleWebKit/537.36 (KHTML, like Gecko) draw.io/22.1.2 Chrome/114.0.5735.289 Electron/25.9.4 Safari/537.36" etag="G0oxI59xoVwSWv_1yI_P" version="22.1.2" type="device">
  <diagram name="Page-1" id="e7e014a7-5840-1c2e-5031-d8a46d1fe8dd">
    <mxGraphModel dx="1418" dy="828" grid="1" gridSize="10" guides="1" tooltips="1" connect="1" arrows="1" fold="1" page="1" pageScale="1" pageWidth="1169" pageHeight="826" background="none" math="0" shadow="0">
      <root>
        <mxCell id="0" />
        <mxCell id="1" parent="0" />
        <mxCell id="eojrtEOIy8Yx_9oJjPUe-49" style="edgeStyle=orthogonalEdgeStyle;rounded=0;orthogonalLoop=1;jettySize=auto;html=1;exitX=0.451;exitY=0.993;exitDx=0;exitDy=0;entryX=0.5;entryY=0;entryDx=0;entryDy=0;exitPerimeter=0;" parent="1" source="eojrtEOIy8Yx_9oJjPUe-69" target="eojrtEOIy8Yx_9oJjPUe-46" edge="1">
          <mxGeometry relative="1" as="geometry">
            <mxPoint x="285" y="90" as="sourcePoint" />
          </mxGeometry>
        </mxCell>
        <mxCell id="eojrtEOIy8Yx_9oJjPUe-44" value="State Idle" style="shape=process;whiteSpace=wrap;html=1;backgroundOutline=1;" parent="1" vertex="1">
          <mxGeometry x="510" y="290" width="120" height="60" as="geometry" />
        </mxCell>
        <mxCell id="eojrtEOIy8Yx_9oJjPUe-46" value="Check Faults" style="rhombus;whiteSpace=wrap;html=1;" parent="1" vertex="1">
          <mxGeometry x="245" y="130" width="80" height="80" as="geometry" />
        </mxCell>
        <mxCell id="eojrtEOIy8Yx_9oJjPUe-50" value="Fault State" style="shape=process;whiteSpace=wrap;html=1;backgroundOutline=1;" parent="1" vertex="1">
          <mxGeometry x="510" y="140" width="120" height="60" as="geometry" />
        </mxCell>
        <mxCell id="eojrtEOIy8Yx_9oJjPUe-51" value="" style="endArrow=classic;html=1;rounded=0;exitX=1;exitY=0.5;exitDx=0;exitDy=0;entryX=0;entryY=0.5;entryDx=0;entryDy=0;" parent="1" source="eojrtEOIy8Yx_9oJjPUe-46" target="eojrtEOIy8Yx_9oJjPUe-50" edge="1">
          <mxGeometry width="50" height="50" relative="1" as="geometry">
            <mxPoint x="450" y="210" as="sourcePoint" />
            <mxPoint x="500" y="160" as="targetPoint" />
          </mxGeometry>
        </mxCell>
        <mxCell id="eojrtEOIy8Yx_9oJjPUe-52" value="YES" style="edgeLabel;html=1;align=center;verticalAlign=middle;resizable=0;points=[];" parent="eojrtEOIy8Yx_9oJjPUe-51" vertex="1" connectable="0">
          <mxGeometry x="-0.1907" y="-1" relative="1" as="geometry">
            <mxPoint as="offset" />
          </mxGeometry>
        </mxCell>
        <mxCell id="eojrtEOIy8Yx_9oJjPUe-53" value="CP STATE ?" style="rhombus;whiteSpace=wrap;html=1;" parent="1" vertex="1">
          <mxGeometry x="245" y="333" width="80" height="80" as="geometry" />
        </mxCell>
        <mxCell id="eojrtEOIy8Yx_9oJjPUe-54" value="" style="endArrow=classic;html=1;rounded=0;exitX=0.5;exitY=1;exitDx=0;exitDy=0;entryX=0.5;entryY=0;entryDx=0;entryDy=0;" parent="1" source="eojrtEOIy8Yx_9oJjPUe-46" target="eojrtEOIy8Yx_9oJjPUe-57" edge="1">
          <mxGeometry width="50" height="50" relative="1" as="geometry">
            <mxPoint x="430" y="210" as="sourcePoint" />
            <mxPoint x="480" y="160" as="targetPoint" />
          </mxGeometry>
        </mxCell>
        <mxCell id="eojrtEOIy8Yx_9oJjPUe-70" value="NO" style="edgeLabel;html=1;align=center;verticalAlign=middle;resizable=0;points=[];" parent="eojrtEOIy8Yx_9oJjPUe-54" vertex="1" connectable="0">
          <mxGeometry x="-0.2296" relative="1" as="geometry">
            <mxPoint as="offset" />
          </mxGeometry>
        </mxCell>
        <mxCell id="eojrtEOIy8Yx_9oJjPUe-55" value="State Connected" style="shape=process;whiteSpace=wrap;html=1;backgroundOutline=1;" parent="1" vertex="1">
          <mxGeometry x="510" y="390" width="120" height="60" as="geometry" />
        </mxCell>
        <mxCell id="eojrtEOIy8Yx_9oJjPUe-57" value="Wait untill CP_STATE=A" style="rounded=0;whiteSpace=wrap;html=1;" parent="1" vertex="1">
          <mxGeometry x="217.5" y="270" width="135" height="30" as="geometry" />
        </mxCell>
        <mxCell id="eojrtEOIy8Yx_9oJjPUe-58" value="" style="endArrow=classic;html=1;rounded=0;entryX=0.5;entryY=0;entryDx=0;entryDy=0;exitX=0.5;exitY=1;exitDx=0;exitDy=0;" parent="1" source="eojrtEOIy8Yx_9oJjPUe-57" target="eojrtEOIy8Yx_9oJjPUe-53" edge="1">
          <mxGeometry width="50" height="50" relative="1" as="geometry">
            <mxPoint x="200" y="380" as="sourcePoint" />
            <mxPoint x="250" y="330" as="targetPoint" />
          </mxGeometry>
        </mxCell>
        <mxCell id="eojrtEOIy8Yx_9oJjPUe-59" value="" style="endArrow=classic;html=1;rounded=0;exitX=1;exitY=0.5;exitDx=0;exitDy=0;entryX=-0.027;entryY=0.505;entryDx=0;entryDy=0;entryPerimeter=0;" parent="1" source="eojrtEOIy8Yx_9oJjPUe-53" target="eojrtEOIy8Yx_9oJjPUe-44" edge="1">
          <mxGeometry width="50" height="50" relative="1" as="geometry">
            <mxPoint x="430" y="440" as="sourcePoint" />
            <mxPoint x="480" y="390" as="targetPoint" />
          </mxGeometry>
        </mxCell>
        <mxCell id="eojrtEOIy8Yx_9oJjPUe-60" value="A" style="edgeLabel;html=1;align=center;verticalAlign=middle;resizable=0;points=[];" parent="eojrtEOIy8Yx_9oJjPUe-59" vertex="1" connectable="0">
          <mxGeometry x="-0.0249" relative="1" as="geometry">
            <mxPoint as="offset" />
          </mxGeometry>
        </mxCell>
        <mxCell id="eojrtEOIy8Yx_9oJjPUe-61" value="" style="endArrow=classic;html=1;rounded=0;exitX=1;exitY=0.5;exitDx=0;exitDy=0;entryX=0;entryY=0.5;entryDx=0;entryDy=0;" parent="1" source="eojrtEOIy8Yx_9oJjPUe-53" target="eojrtEOIy8Yx_9oJjPUe-55" edge="1">
          <mxGeometry width="50" height="50" relative="1" as="geometry">
            <mxPoint x="430" y="440" as="sourcePoint" />
            <mxPoint x="480" y="390" as="targetPoint" />
          </mxGeometry>
        </mxCell>
        <mxCell id="eojrtEOIy8Yx_9oJjPUe-62" value="B" style="edgeLabel;html=1;align=center;verticalAlign=middle;resizable=0;points=[];" parent="eojrtEOIy8Yx_9oJjPUe-61" vertex="1" connectable="0">
          <mxGeometry x="-0.0217" y="1" relative="1" as="geometry">
            <mxPoint as="offset" />
          </mxGeometry>
        </mxCell>
        <mxCell id="eojrtEOIy8Yx_9oJjPUe-63" value="State Ready to Charge" style="shape=process;whiteSpace=wrap;html=1;backgroundOutline=1;" parent="1" vertex="1">
          <mxGeometry x="510" y="500" width="120" height="60" as="geometry" />
        </mxCell>
        <mxCell id="eojrtEOIy8Yx_9oJjPUe-64" value="" style="endArrow=classic;html=1;rounded=0;entryX=0;entryY=0.5;entryDx=0;entryDy=0;exitX=1;exitY=0.5;exitDx=0;exitDy=0;" parent="1" source="eojrtEOIy8Yx_9oJjPUe-53" target="eojrtEOIy8Yx_9oJjPUe-63" edge="1">
          <mxGeometry width="50" height="50" relative="1" as="geometry">
            <mxPoint x="430" y="440" as="sourcePoint" />
            <mxPoint x="480" y="390" as="targetPoint" />
          </mxGeometry>
        </mxCell>
        <mxCell id="eojrtEOIy8Yx_9oJjPUe-65" value="C" style="edgeLabel;html=1;align=center;verticalAlign=middle;resizable=0;points=[];" parent="eojrtEOIy8Yx_9oJjPUe-64" vertex="1" connectable="0">
          <mxGeometry x="-0.0122" y="-1" relative="1" as="geometry">
            <mxPoint as="offset" />
          </mxGeometry>
        </mxCell>
        <mxCell id="eojrtEOIy8Yx_9oJjPUe-66" value="" style="endArrow=classic;html=1;rounded=0;entryX=0;entryY=0.5;entryDx=0;entryDy=0;exitX=1;exitY=0.5;exitDx=0;exitDy=0;" parent="1" source="eojrtEOIy8Yx_9oJjPUe-53" target="eojrtEOIy8Yx_9oJjPUe-50" edge="1">
          <mxGeometry width="50" height="50" relative="1" as="geometry">
            <mxPoint x="330" y="370" as="sourcePoint" />
            <mxPoint x="480" y="240" as="targetPoint" />
          </mxGeometry>
        </mxCell>
        <mxCell id="eojrtEOIy8Yx_9oJjPUe-67" value="D or E or F" style="edgeLabel;html=1;align=center;verticalAlign=middle;resizable=0;points=[];" parent="eojrtEOIy8Yx_9oJjPUe-66" vertex="1" connectable="0">
          <mxGeometry x="-0.0304" y="1" relative="1" as="geometry">
            <mxPoint as="offset" />
          </mxGeometry>
        </mxCell>
        <mxCell id="eojrtEOIy8Yx_9oJjPUe-69" value="Initialize" style="ellipse;whiteSpace=wrap;html=1;" parent="1" vertex="1">
          <mxGeometry x="250" y="40" width="75" height="40" as="geometry" />
        </mxCell>
        <mxCell id="eojrtEOIy8Yx_9oJjPUe-71" value="Check Faults" style="rhombus;whiteSpace=wrap;html=1;" parent="1" vertex="1">
          <mxGeometry x="530" y="600" width="80" height="80" as="geometry" />
        </mxCell>
        <mxCell id="eojrtEOIy8Yx_9oJjPUe-72" value="" style="endArrow=classic;html=1;rounded=0;exitX=0.5;exitY=1;exitDx=0;exitDy=0;entryX=0.5;entryY=0;entryDx=0;entryDy=0;" parent="1" source="eojrtEOIy8Yx_9oJjPUe-63" target="eojrtEOIy8Yx_9oJjPUe-71" edge="1">
          <mxGeometry width="50" height="50" relative="1" as="geometry">
            <mxPoint x="440" y="640" as="sourcePoint" />
            <mxPoint x="490" y="590" as="targetPoint" />
          </mxGeometry>
        </mxCell>
        <mxCell id="eojrtEOIy8Yx_9oJjPUe-73" value="Relay ON" style="rounded=0;whiteSpace=wrap;html=1;" parent="1" vertex="1">
          <mxGeometry x="510" y="730" width="120" height="30" as="geometry" />
        </mxCell>
        <mxCell id="eojrtEOIy8Yx_9oJjPUe-74" value="" style="endArrow=classic;html=1;rounded=0;exitX=0.5;exitY=1;exitDx=0;exitDy=0;entryX=0.5;entryY=0;entryDx=0;entryDy=0;" parent="1" source="eojrtEOIy8Yx_9oJjPUe-71" target="eojrtEOIy8Yx_9oJjPUe-73" edge="1">
          <mxGeometry width="50" height="50" relative="1" as="geometry">
            <mxPoint x="420" y="650" as="sourcePoint" />
            <mxPoint x="470" y="600" as="targetPoint" />
          </mxGeometry>
        </mxCell>
        <mxCell id="eojrtEOIy8Yx_9oJjPUe-91" value="NO" style="edgeLabel;html=1;align=center;verticalAlign=middle;resizable=0;points=[];" parent="eojrtEOIy8Yx_9oJjPUe-74" vertex="1" connectable="0">
          <mxGeometry x="0.051" y="1" relative="1" as="geometry">
            <mxPoint as="offset" />
          </mxGeometry>
        </mxCell>
        <mxCell id="eojrtEOIy8Yx_9oJjPUe-75" value="Set Control Pilot PWM&amp;nbsp;&lt;br&gt;(Current)" style="rounded=0;whiteSpace=wrap;html=1;" parent="1" vertex="1">
          <mxGeometry x="510" y="970" width="120" height="60" as="geometry" />
        </mxCell>
        <mxCell id="eojrtEOIy8Yx_9oJjPUe-78" value="delay 500 ms" style="rounded=0;whiteSpace=wrap;html=1;" parent="1" vertex="1">
          <mxGeometry x="510" y="790" width="120" height="30" as="geometry" />
        </mxCell>
        <mxCell id="eojrtEOIy8Yx_9oJjPUe-80" value="is Relay ON?" style="rhombus;whiteSpace=wrap;html=1;" parent="1" vertex="1">
          <mxGeometry x="495" y="850" width="150" height="80" as="geometry" />
        </mxCell>
        <mxCell id="eojrtEOIy8Yx_9oJjPUe-81" value="" style="endArrow=classic;html=1;rounded=0;exitX=0.5;exitY=1;exitDx=0;exitDy=0;entryX=0.5;entryY=0;entryDx=0;entryDy=0;" parent="1" source="eojrtEOIy8Yx_9oJjPUe-80" target="eojrtEOIy8Yx_9oJjPUe-75" edge="1">
          <mxGeometry width="50" height="50" relative="1" as="geometry">
            <mxPoint x="420" y="920" as="sourcePoint" />
            <mxPoint x="470" y="870" as="targetPoint" />
          </mxGeometry>
        </mxCell>
        <mxCell id="eojrtEOIy8Yx_9oJjPUe-82" value="if state==C &amp;amp;&amp;amp; NoFaults&lt;br&gt;?" style="rhombus;whiteSpace=wrap;html=1;" parent="1" vertex="1">
          <mxGeometry x="472.5" y="1060" width="195" height="130" as="geometry" />
        </mxCell>
        <mxCell id="eojrtEOIy8Yx_9oJjPUe-83" value="" style="endArrow=classic;html=1;rounded=0;exitX=0.5;exitY=1;exitDx=0;exitDy=0;entryX=0.5;entryY=0;entryDx=0;entryDy=0;" parent="1" source="eojrtEOIy8Yx_9oJjPUe-75" target="eojrtEOIy8Yx_9oJjPUe-82" edge="1">
          <mxGeometry width="50" height="50" relative="1" as="geometry">
            <mxPoint x="350" y="1110" as="sourcePoint" />
            <mxPoint x="400" y="1060" as="targetPoint" />
          </mxGeometry>
        </mxCell>
        <mxCell id="eojrtEOIy8Yx_9oJjPUe-86" value="Relay OFF&lt;br&gt;Stop PWM" style="rounded=0;whiteSpace=wrap;html=1;" parent="1" vertex="1">
          <mxGeometry x="510" y="1240" width="120" height="60" as="geometry" />
        </mxCell>
        <mxCell id="eojrtEOIy8Yx_9oJjPUe-87" value="" style="endArrow=classic;html=1;rounded=0;entryX=0.5;entryY=0;entryDx=0;entryDy=0;exitX=0.5;exitY=1;exitDx=0;exitDy=0;" parent="1" source="eojrtEOIy8Yx_9oJjPUe-82" target="eojrtEOIy8Yx_9oJjPUe-86" edge="1">
          <mxGeometry width="50" height="50" relative="1" as="geometry">
            <mxPoint x="390" y="1270" as="sourcePoint" />
            <mxPoint x="440" y="1220" as="targetPoint" />
          </mxGeometry>
        </mxCell>
        <mxCell id="eojrtEOIy8Yx_9oJjPUe-88" value="NO" style="edgeLabel;html=1;align=center;verticalAlign=middle;resizable=0;points=[];" parent="eojrtEOIy8Yx_9oJjPUe-87" vertex="1" connectable="0">
          <mxGeometry x="-0.1834" relative="1" as="geometry">
            <mxPoint as="offset" />
          </mxGeometry>
        </mxCell>
        <mxCell id="eojrtEOIy8Yx_9oJjPUe-89" value="" style="endArrow=classic;html=1;rounded=0;exitX=0.5;exitY=1;exitDx=0;exitDy=0;" parent="1" source="eojrtEOIy8Yx_9oJjPUe-78" target="eojrtEOIy8Yx_9oJjPUe-80" edge="1">
          <mxGeometry width="50" height="50" relative="1" as="geometry">
            <mxPoint x="420" y="1010" as="sourcePoint" />
            <mxPoint x="470" y="960" as="targetPoint" />
          </mxGeometry>
        </mxCell>
        <mxCell id="eojrtEOIy8Yx_9oJjPUe-90" value="" style="endArrow=classic;html=1;rounded=0;entryX=0.5;entryY=0;entryDx=0;entryDy=0;exitX=0.5;exitY=1;exitDx=0;exitDy=0;" parent="1" source="eojrtEOIy8Yx_9oJjPUe-73" target="eojrtEOIy8Yx_9oJjPUe-78" edge="1">
          <mxGeometry width="50" height="50" relative="1" as="geometry">
            <mxPoint x="430" y="840" as="sourcePoint" />
            <mxPoint x="480" y="790" as="targetPoint" />
          </mxGeometry>
        </mxCell>
        <mxCell id="eojrtEOIy8Yx_9oJjPUe-94" value="&lt;br&gt;if Current is lower than 1A for 5 minutes" style="rhombus;whiteSpace=wrap;html=1;" parent="1" vertex="1">
          <mxGeometry x="730" y="1060" width="195" height="130" as="geometry" />
        </mxCell>
        <mxCell id="eojrtEOIy8Yx_9oJjPUe-95" value="" style="endArrow=classic;html=1;rounded=0;exitX=1;exitY=0.5;exitDx=0;exitDy=0;entryX=0;entryY=0.5;entryDx=0;entryDy=0;" parent="1" source="eojrtEOIy8Yx_9oJjPUe-82" target="eojrtEOIy8Yx_9oJjPUe-94" edge="1">
          <mxGeometry width="50" height="50" relative="1" as="geometry">
            <mxPoint x="670" y="1110" as="sourcePoint" />
            <mxPoint x="720" y="1060" as="targetPoint" />
          </mxGeometry>
        </mxCell>
        <mxCell id="eojrtEOIy8Yx_9oJjPUe-96" value="YES" style="edgeLabel;html=1;align=center;verticalAlign=middle;resizable=0;points=[];" parent="eojrtEOIy8Yx_9oJjPUe-95" vertex="1" connectable="0">
          <mxGeometry x="-0.1597" y="-1" relative="1" as="geometry">
            <mxPoint as="offset" />
          </mxGeometry>
        </mxCell>
        <mxCell id="eojrtEOIy8Yx_9oJjPUe-97" value="" style="endArrow=classic;html=1;rounded=0;exitX=0.5;exitY=1;exitDx=0;exitDy=0;entryX=1;entryY=0.5;entryDx=0;entryDy=0;" parent="1" source="eojrtEOIy8Yx_9oJjPUe-94" target="eojrtEOIy8Yx_9oJjPUe-86" edge="1">
          <mxGeometry width="50" height="50" relative="1" as="geometry">
            <mxPoint x="840" y="1320" as="sourcePoint" />
            <mxPoint x="890" y="1270" as="targetPoint" />
            <Array as="points">
              <mxPoint x="830" y="1260" />
            </Array>
          </mxGeometry>
        </mxCell>
        <mxCell id="eojrtEOIy8Yx_9oJjPUe-98" value="YES" style="edgeLabel;html=1;align=center;verticalAlign=middle;resizable=0;points=[];" parent="eojrtEOIy8Yx_9oJjPUe-97" vertex="1" connectable="0">
          <mxGeometry x="-0.7567" y="1" relative="1" as="geometry">
            <mxPoint as="offset" />
          </mxGeometry>
        </mxCell>
        <mxCell id="eojrtEOIy8Yx_9oJjPUe-99" value="" style="endArrow=classic;html=1;rounded=0;exitX=1;exitY=0.5;exitDx=0;exitDy=0;entryX=0.5;entryY=0;entryDx=0;entryDy=0;" parent="1" source="eojrtEOIy8Yx_9oJjPUe-94" target="eojrtEOIy8Yx_9oJjPUe-82" edge="1">
          <mxGeometry width="50" height="50" relative="1" as="geometry">
            <mxPoint x="1000" y="1080" as="sourcePoint" />
            <mxPoint x="590" y="1040" as="targetPoint" />
            <Array as="points">
              <mxPoint x="990" y="1120" />
              <mxPoint x="990" y="1040" />
              <mxPoint x="620" y="1040" />
            </Array>
          </mxGeometry>
        </mxCell>
        <mxCell id="eojrtEOIy8Yx_9oJjPUe-100" value="NO" style="edgeLabel;html=1;align=center;verticalAlign=middle;resizable=0;points=[];" parent="eojrtEOIy8Yx_9oJjPUe-99" vertex="1" connectable="0">
          <mxGeometry x="-0.9159" y="-1" relative="1" as="geometry">
            <mxPoint as="offset" />
          </mxGeometry>
        </mxCell>
        <mxCell id="ByAJU4TrP-tfpIBIc6Uk-1" value="&lt;font color=&quot;#000099&quot;&gt;Araçlar AC Şarda, genelde akımı tamamen sonlandırmamaktadır. Dolayısıyla 5dk kadar süreyle 1A&#39;den daha az bir akım çekiyorsa, şarj sonlandırılmalıdır.&lt;/font&gt;" style="text;html=1;strokeColor=#000066;fillColor=#f8cecc;align=center;verticalAlign=middle;whiteSpace=wrap;rounded=0;" vertex="1" parent="1">
          <mxGeometry x="880" y="1170" width="220" height="110" as="geometry" />
        </mxCell>
      </root>
    </mxGraphModel>
  </diagram>
</mxfile>
